<svg width="479" height="151" viewBox="0 0 479 151" fill="none" xmlns="http://www.w3.org/2000/svg">
<path d="M55.048 71.056C51.528 70.352 48.968 68.688 47.368 66.064C45.768 63.376 44.968 60.368 44.968 57.04C44.968 56.656 44.968 56.272 44.968 55.888C44.968 55.504 45 55.12 45.064 54.736C45.768 49.168 47.592 44.432 50.536 40.528C53.48 36.56 57.128 33.328 61.48 30.832C65.896 28.272 70.632 26.352 75.688 25.072C80.808 23.728 85.832 22.928 90.76 22.672C91.08 22.608 91.4 22.576 91.72 22.576C92.04 22.576 92.36 22.576 92.68 22.576C95.624 22.576 98.536 22.768 101.416 23.152C104.296 23.536 107.208 23.728 110.152 23.728C110.664 23.728 111.144 23.728 111.592 23.728C112.04 23.728 112.488 23.696 112.936 23.632C113.704 23.568 114.312 23.472 114.76 23.344C115.208 23.216 115.752 22.928 116.392 22.48C116.456 22.48 116.488 22.48 116.488 22.48C116.552 22.416 116.616 22.384 116.68 22.384C116.872 22.384 116.968 22.512 116.968 22.768C116.968 23.088 116.776 23.44 116.392 23.824C114.792 25.232 113.288 26.352 111.88 27.184C110.472 28.016 108.648 28.432 106.408 28.432C106.024 28.432 105.608 28.432 105.16 28.432C104.776 28.368 104.392 28.304 104.008 28.24C100.936 27.856 97.864 27.6 94.792 27.472C91.72 27.344 88.648 27.28 85.576 27.28C82.12 27.28 78.696 27.504 75.304 27.952C71.912 28.4 68.68 29.296 65.608 30.64C62.6 31.92 59.848 33.936 57.352 36.688C54.984 39.312 53.064 42.544 51.592 46.384C50.12 50.224 49.384 53.936 49.384 57.52C49.384 60.144 49.8 62.48 50.632 64.528C51.528 66.576 53.096 68.336 55.336 69.808C55.72 70.064 55.912 70.32 55.912 70.576C55.912 70.896 55.72 71.056 55.336 71.056H55.048ZM19.912 122.608C17.736 122.608 15.464 122.352 13.096 121.84C10.792 121.328 8.648 120.496 6.664 119.344C4.68 118.192 3.08 116.688 1.864 114.832C0.648 112.976 0.0399995 110.736 0.0399995 108.112C0.0399995 106.768 0.263999 105.424 0.711999 104.08C1.096 102.8 1.608 101.552 2.248 100.336C4.04 97.264 6.472 94.672 9.544 92.56C12.552 90.384 15.816 88.592 19.336 87.184C22.92 85.712 26.344 84.592 29.608 83.824C33.832 82.8 38.152 82.16 42.568 81.904C47.048 81.648 51.432 81.52 55.72 81.52H60.328C60.84 81.52 61.096 81.68 61.096 82C61.096 82.64 60.776 83.024 60.136 83.152H57.64C56.488 83.152 55.336 83.184 54.184 83.248C53.096 83.248 51.976 83.28 50.824 83.344C47.432 83.472 44.008 83.728 40.552 84.112C37.096 84.432 33.704 85.008 30.376 85.84C28.072 86.416 25.48 87.28 22.6 88.432C19.72 89.52 16.968 90.928 14.344 92.656C11.784 94.32 9.672 96.272 8.008 98.512C6.28 100.816 5.416 103.44 5.416 106.384C5.416 109.456 6.344 111.984 8.2 113.968C10.056 115.952 12.328 117.392 15.016 118.288C17.768 119.248 20.456 119.728 23.08 119.728C24.936 119.728 26.728 119.568 28.456 119.248C30.248 118.928 32.008 118.512 33.736 118C37.64 116.784 41.512 114.704 45.352 111.76C49.192 108.816 52.84 105.392 56.296 101.488C59.752 97.648 62.856 93.68 65.608 89.584C68.424 85.488 70.728 81.68 72.52 78.16C75.528 72.272 78.472 66.352 81.352 60.4C84.296 54.384 87.24 48.4 90.184 42.448C90.248 42.32 90.472 41.84 90.856 41.008C91.304 40.176 91.784 39.248 92.296 38.224C92.808 37.136 93.256 36.208 93.64 35.44C94.024 34.672 94.248 34.256 94.312 34.192C95.528 32.912 96.712 32.304 97.864 32.368C99.08 32.368 100.424 32.272 101.896 32.08C103.112 31.952 103.816 31.696 104.008 31.312C104.264 30.864 104.584 30.64 104.968 30.64C105.352 30.64 105.544 30.768 105.544 31.024C105.544 31.152 105.48 31.344 105.352 31.6C103.56 34.16 101.896 36.816 100.36 39.568C98.824 42.32 97.256 45.04 95.656 47.728C93.288 52.016 90.888 56.272 88.456 60.496C86.024 64.72 83.592 68.976 81.16 73.264C79.752 75.76 78.344 78.256 76.936 80.752C75.528 83.248 74.056 85.712 72.52 88.144C69.192 93.52 65.16 98.576 60.424 103.312C55.752 108.112 50.536 112.176 44.776 115.504C39.08 118.832 33 121.008 26.536 122.032C24.36 122.416 22.152 122.608 19.912 122.608ZM72.424 71.536C72.232 71.536 72.136 71.408 72.136 71.152C72.136 70.96 72.136 70.768 72.136 70.576C72.2 70.384 72.264 70.192 72.328 70C73.032 67.184 73.384 64.432 73.384 61.744C73.384 61.232 73.352 60.56 73.288 59.728C73.224 58.896 73.032 58.128 72.712 57.424C72.456 56.72 71.976 56.368 71.272 56.368C70.632 56.368 70.216 56.56 70.024 56.944C69.896 57.264 69.704 57.424 69.448 57.424C69.32 57.424 69.256 57.36 69.256 57.232L69.352 56.848C69.864 55.888 70.568 55.056 71.464 54.352C72.424 53.648 73.448 53.296 74.536 53.296C75.88 53.296 76.744 53.84 77.128 54.928C77.576 55.952 77.8 57.008 77.8 58.096C77.8 60.08 77.32 62.128 76.36 64.24C75.464 66.352 74.568 68.304 73.672 70.096C73.608 70.288 73.416 70.576 73.096 70.96C72.84 71.344 72.616 71.536 72.424 71.536ZM90.385 94.384C89.937 94.384 89.169 94.256 88.081 94C87.057 93.808 86.545 93.424 86.545 92.848C86.545 92.272 86.769 91.344 87.217 90.064C87.665 88.784 88.017 87.824 88.273 87.184C88.785 85.776 89.553 83.888 90.577 81.52C91.665 79.088 92.817 76.528 94.033 73.84C95.313 71.152 96.593 68.72 97.873 66.544C99.153 64.368 100.273 62.832 101.233 61.936C102.129 61.104 103.057 60.592 104.017 60.4C104.977 60.144 106.033 60.016 107.185 60.016C109.233 60.016 111.281 60.144 113.329 60.4C115.377 60.656 117.457 60.784 119.569 60.784C120.209 60.784 120.721 60.592 121.105 60.208C121.553 59.76 121.777 59.216 121.777 58.576C121.777 58.384 121.745 58.192 121.681 58C121.617 57.744 121.585 57.52 121.585 57.328C121.585 57.2 121.841 57.136 122.353 57.136C123.505 57.136 124.369 57.52 124.945 58.288C125.585 59.056 126.001 59.984 126.193 61.072C126.449 62.16 126.577 63.216 126.577 64.24C126.577 65.584 126.417 66.992 126.097 68.464C125.777 69.936 125.329 71.28 124.753 72.496C123.793 74.352 122.321 76.304 120.337 78.352C118.417 80.336 116.177 82.288 113.617 84.208C111.057 86.128 108.369 87.856 105.553 89.392C102.801 90.928 100.113 92.144 97.489 93.04C94.865 93.936 92.497 94.384 90.385 94.384ZM96.721 89.872C97.361 89.872 98.001 89.776 98.641 89.584C99.281 89.392 99.921 89.2 100.561 89.008C106.641 86.896 111.601 83.344 115.441 78.352C116.401 77.008 117.297 75.344 118.129 73.36C118.961 71.312 119.377 69.456 119.377 67.792C119.377 65.872 118.737 64.432 117.457 63.472C116.177 62.448 114.609 61.936 112.753 61.936C111.857 61.936 111.057 62.064 110.353 62.32C109.265 62.704 108.049 63.664 106.705 65.2C105.361 66.736 104.017 68.592 102.673 70.768C101.329 72.88 100.081 75.088 98.929 77.392C97.777 79.696 96.849 81.84 96.145 83.824C95.441 85.744 95.089 87.28 95.089 88.432C95.089 89.392 95.633 89.872 96.721 89.872ZM139.209 97.648C138.761 97.648 138.537 97.36 138.537 96.784C138.537 96.656 138.569 96.528 138.633 96.4C138.761 96.272 138.857 96.144 138.921 96.016C139.305 95.568 139.977 94.576 140.937 93.04C141.897 91.44 143.049 89.552 144.393 87.376C145.737 85.136 147.113 82.832 148.521 80.464C149.929 78.032 151.241 75.76 152.457 73.648C153.673 71.536 154.633 69.744 155.337 68.272C156.105 66.8 156.489 65.936 156.489 65.68C156.489 65.232 156.233 65.008 155.721 65.008C154.953 65.008 153.961 65.328 152.745 65.968C151.529 66.544 150.569 67.024 149.865 67.408C147.113 68.944 144.329 70.96 141.513 73.456C138.761 75.952 136.233 78.672 133.929 81.616C131.625 84.56 129.833 87.504 128.553 90.448C128.297 91.024 128.073 91.536 127.881 91.984C127.689 92.432 127.305 92.816 126.729 93.136C126.281 93.392 125.769 93.584 125.193 93.712C124.617 93.776 124.073 93.936 123.561 94.192C123.113 94.384 122.665 94.576 122.216 94.768C121.768 94.96 121.288 95.056 120.776 95.056C120.52 95.056 120.392 95.024 120.392 94.96C120.392 94.896 120.424 94.864 120.488 94.864C120.488 94.864 120.488 94.832 120.488 94.768C120.808 94.384 121.128 94.032 121.448 93.712C121.768 93.392 122.056 93.04 122.312 92.656C123.593 90.992 124.713 89.264 125.673 87.472C126.633 85.616 127.529 83.728 128.361 81.808C129.833 78.224 131.369 74.704 132.969 71.248C134.633 67.728 136.297 64.24 137.961 60.784C139.177 58.352 140.393 55.952 141.609 53.584C142.889 51.216 144.233 48.912 145.641 46.672C147.561 43.664 149.705 40.72 152.073 37.84C154.505 34.896 157.161 32.272 160.041 29.968C162.921 27.6 166.057 25.712 169.449 24.304C172.841 22.896 176.457 22.192 180.297 22.192C182.473 22.192 184.393 22.64 186.057 23.536C187.785 24.368 188.649 26.064 188.649 28.624C188.649 29.008 188.521 29.808 188.265 31.024C188.009 32.24 187.657 33.392 187.209 34.48C186.825 35.504 186.377 36.016 185.865 36.016C185.673 36.016 185.577 35.76 185.577 35.248C185.577 33.456 185.353 31.728 184.905 30.064C184.521 28.4 183.785 27.024 182.697 25.936C181.609 24.848 179.977 24.304 177.801 24.304C175.113 24.304 172.553 24.976 170.121 26.32C167.689 27.6 165.417 29.296 163.305 31.408C161.257 33.456 159.369 35.664 157.641 38.032C155.977 40.336 154.537 42.512 153.321 44.56C150.249 49.616 147.081 54.64 143.817 59.632C140.617 64.56 137.705 69.68 135.081 74.992L135.561 74.032C135.305 74.672 135.017 75.184 134.697 75.568L134.409 76.144C134.409 76.272 134.377 76.368 134.312 76.432C134.249 76.496 134.249 76.496 134.312 76.432L134.409 76.144C134.473 76.08 134.505 76.016 134.505 75.952L134.312 76.432L132.009 81.04C133.545 79.184 135.433 77.04 137.673 74.608C139.977 72.112 142.473 69.68 145.161 67.312C147.913 64.944 150.665 62.992 153.417 61.456C156.233 59.856 158.921 59.056 161.481 59.056C161.801 59.056 162.377 59.12 163.209 59.248C164.105 59.312 164.905 59.472 165.609 59.728C166.377 59.984 166.761 60.304 166.761 60.688C166.761 61.008 166.505 61.328 165.993 61.648C165.545 61.968 165.225 62.192 165.033 62.32C163.689 63.216 162.313 64.624 160.905 66.544C159.561 68.4 158.345 70.384 157.257 72.496C156.169 74.608 155.273 76.4 154.569 77.872C154.313 78.512 153.929 79.376 153.417 80.464C152.969 81.488 152.745 82.352 152.745 83.056C152.745 83.632 153.001 83.92 153.513 83.92C153.961 83.92 154.473 83.76 155.049 83.44C155.625 83.056 156.073 82.768 156.393 82.576C158.633 81.104 160.905 79.696 163.209 78.352C165.513 76.944 167.913 75.728 170.409 74.704C170.537 74.704 170.825 74.608 171.273 74.416C171.785 74.224 172.073 74.128 172.137 74.128C172.521 74.128 172.713 74.352 172.713 74.8C170.857 75.632 169.033 76.624 167.241 77.776C165.449 78.928 163.689 80.048 161.961 81.136C158.121 83.568 154.281 86.128 150.441 88.816C146.601 91.504 142.985 94.384 139.593 97.456C139.465 97.584 139.337 97.648 139.209 97.648ZM175.584 97.648C175.136 97.648 174.912 97.36 174.912 96.784C174.912 96.528 175.04 96.272 175.296 96.016C175.68 95.568 176.352 94.544 177.312 92.944C178.336 91.344 179.52 89.456 180.864 87.28C182.208 85.104 183.552 82.832 184.896 80.464C186.304 78.032 187.616 75.76 188.832 73.648C190.048 71.472 191.008 69.68 191.712 68.272C192.48 66.8 192.864 65.936 192.864 65.68C192.864 65.232 192.608 65.008 192.096 65.008C191.328 65.008 190.336 65.328 189.12 65.968C187.904 66.544 186.944 67.024 186.24 67.408C184.256 68.56 182.176 70.032 180 71.824C177.824 73.552 175.68 75.504 173.568 77.68C171.456 79.792 169.504 81.936 167.712 84.112C165.984 86.288 164.576 88.368 163.488 90.352C163.232 90.864 162.976 91.376 162.72 91.888C162.464 92.336 162.016 92.688 161.376 92.944C160.864 93.2 160.32 93.392 159.744 93.52C159.168 93.584 158.624 93.744 158.111 94C157.663 94.192 157.215 94.352 156.767 94.48C156.255 94.672 155.743 94.768 155.231 94.768C154.975 94.768 154.847 94.736 154.847 94.672C154.847 94.608 154.879 94.576 154.943 94.576C154.943 94.576 154.943 94.544 154.943 94.48C155.455 93.968 155.999 93.456 156.575 92.944C157.087 92.368 157.567 91.792 158.015 91.216C159.231 89.744 160.352 88.208 161.376 86.608C162.4 85.008 163.328 83.376 164.16 81.712C164.608 80.944 165.216 79.792 165.984 78.256C166.752 76.72 167.456 75.184 168.096 73.648C168.736 72.112 169.056 70.96 169.056 70.192C169.056 69.488 168.832 69.232 168.384 69.424C168 69.552 167.808 69.424 167.808 69.04C167.808 68.72 167.968 68.304 168.288 67.792C168.672 67.28 168.96 66.896 169.152 66.64C169.984 65.488 170.912 64.432 171.936 63.472C173.024 62.448 174.24 61.68 175.584 61.168C176.096 60.976 176.8 60.752 177.696 60.496C178.592 60.176 179.296 60.016 179.808 60.016C180.192 60.016 180.384 60.144 180.384 60.4C180.384 60.784 180.192 61.168 179.808 61.552C177.632 64.688 175.616 67.888 173.76 71.152C171.904 74.352 170.112 77.648 168.384 81.04C169.92 79.12 171.84 76.944 174.144 74.512C176.448 72.016 178.944 69.584 181.632 67.216C184.32 64.848 187.04 62.896 189.792 61.36C192.608 59.824 195.296 59.056 197.856 59.056C198.176 59.056 198.752 59.12 199.584 59.248C200.48 59.312 201.28 59.472 201.984 59.728C202.752 59.984 203.136 60.304 203.136 60.688C203.136 61.008 202.912 61.328 202.464 61.648C202.016 61.968 201.664 62.192 201.408 62.32C200.064 63.152 198.72 64.528 197.376 66.448C196.032 68.368 194.784 70.384 193.632 72.496C192.544 74.608 191.648 76.4 190.944 77.872C190.688 78.512 190.304 79.376 189.792 80.464C189.344 81.488 189.12 82.352 189.12 83.056C189.12 83.632 189.376 83.92 189.888 83.92C190.336 83.92 190.848 83.76 191.424 83.44C192 83.056 192.448 82.768 192.768 82.576C195.008 81.04 197.312 79.568 199.68 78.16C202.048 76.752 204.512 75.568 207.072 74.608C207.2 74.608 207.456 74.544 207.84 74.416C208.224 74.224 208.448 74.128 208.512 74.128C208.896 74.128 209.088 74.352 209.088 74.8C207.232 75.632 205.408 76.624 203.616 77.776C201.824 78.928 200.064 80.048 198.336 81.136C194.496 83.568 190.656 86.128 186.816 88.816C182.976 91.504 179.36 94.384 175.968 97.456C175.84 97.584 175.712 97.648 175.584 97.648ZM211.959 97.648C211.511 97.648 211.287 97.36 211.287 96.784C211.287 96.528 211.415 96.272 211.671 96.016C212.055 95.568 212.727 94.544 213.687 92.944C214.711 91.344 215.895 89.456 217.239 87.28C218.583 85.104 219.927 82.832 221.271 80.464C222.679 78.032 223.991 75.76 225.207 73.648C226.423 71.472 227.383 69.68 228.087 68.272C228.855 66.8 229.239 65.936 229.239 65.68C229.239 65.232 228.983 65.008 228.471 65.008C227.703 65.008 226.711 65.328 225.495 65.968C224.279 66.544 223.319 67.024 222.615 67.408C220.631 68.56 218.551 70.032 216.375 71.824C214.199 73.552 212.055 75.504 209.943 77.68C207.831 79.792 205.879 81.936 204.087 84.112C202.359 86.288 200.951 88.368 199.863 90.352C199.607 90.864 199.351 91.376 199.095 91.888C198.839 92.336 198.391 92.688 197.751 92.944C197.239 93.2 196.695 93.392 196.119 93.52C195.543 93.584 194.999 93.744 194.486 94C194.038 94.192 193.59 94.352 193.142 94.48C192.63 94.672 192.118 94.768 191.606 94.768C191.35 94.768 191.222 94.736 191.222 94.672C191.222 94.608 191.254 94.576 191.318 94.576C191.318 94.576 191.318 94.544 191.318 94.48C191.83 93.968 192.374 93.456 192.95 92.944C193.462 92.368 193.942 91.792 194.39 91.216C195.606 89.744 196.727 88.208 197.751 86.608C198.775 85.008 199.703 83.376 200.535 81.712C200.983 80.944 201.591 79.792 202.359 78.256C203.127 76.72 203.831 75.184 204.471 73.648C205.111 72.112 205.431 70.96 205.431 70.192C205.431 69.488 205.207 69.232 204.759 69.424C204.375 69.552 204.183 69.424 204.183 69.04C204.183 68.72 204.343 68.304 204.663 67.792C205.047 67.28 205.335 66.896 205.527 66.64C206.359 65.488 207.287 64.432 208.311 63.472C209.399 62.448 210.615 61.68 211.959 61.168C212.471 60.976 213.175 60.752 214.071 60.496C214.967 60.176 215.671 60.016 216.183 60.016C216.567 60.016 216.759 60.144 216.759 60.4C216.759 60.784 216.567 61.168 216.183 61.552C214.007 64.688 211.991 67.888 210.135 71.152C208.279 74.352 206.487 77.648 204.759 81.04C206.295 79.12 208.215 76.944 210.519 74.512C212.823 72.016 215.319 69.584 218.007 67.216C220.695 64.848 223.415 62.896 226.167 61.36C228.983 59.824 231.671 59.056 234.231 59.056C234.551 59.056 235.127 59.12 235.959 59.248C236.855 59.312 237.655 59.472 238.359 59.728C239.127 59.984 239.511 60.304 239.511 60.688C239.511 61.008 239.287 61.328 238.839 61.648C238.391 61.968 238.039 62.192 237.783 62.32C236.439 63.152 235.095 64.528 233.751 66.448C232.407 68.368 231.159 70.384 230.007 72.496C228.919 74.608 228.023 76.4 227.319 77.872C227.063 78.512 226.679 79.376 226.167 80.464C225.719 81.488 225.495 82.352 225.495 83.056C225.495 83.632 225.751 83.92 226.263 83.92C226.711 83.92 227.223 83.76 227.799 83.44C228.375 83.056 228.823 82.768 229.143 82.576C231.383 81.04 233.687 79.568 236.055 78.16C238.423 76.752 240.887 75.568 243.447 74.608C243.575 74.608 243.831 74.544 244.215 74.416C244.599 74.224 244.823 74.128 244.887 74.128C245.271 74.128 245.463 74.352 245.463 74.8C243.607 75.632 241.783 76.624 239.991 77.776C238.199 78.928 236.439 80.048 234.711 81.136C230.871 83.568 227.031 86.128 223.191 88.816C219.351 91.504 215.735 94.384 212.343 97.456C212.215 97.584 212.087 97.648 211.959 97.648ZM228.077 120.208C226.605 120.208 225.069 119.952 223.469 119.44C221.869 118.992 220.525 118.224 219.438 117.136C218.349 116.048 217.805 114.64 217.805 112.912C217.805 112.4 217.965 111.6 218.285 110.512C218.541 109.488 218.925 108.528 219.438 107.632C219.949 106.736 220.525 106.288 221.165 106.288C221.485 106.288 221.645 106.544 221.645 107.056C221.645 108.464 221.837 109.968 222.221 111.568C222.605 113.232 223.309 114.64 224.333 115.792C225.869 117.456 227.693 118.288 229.805 118.288C232.046 118.288 234.478 117.392 237.102 115.6C239.726 113.872 242.414 111.536 245.166 108.592C247.982 105.712 250.702 102.512 253.326 98.992C256.014 95.472 258.51 91.952 260.814 88.432C263.182 84.848 265.23 81.552 266.958 78.544C268.75 75.472 270.126 72.976 271.086 71.056C270.254 72.016 269.294 72.912 268.206 73.744C267.182 74.576 266.19 75.376 265.23 76.144C261.71 78.896 258.03 81.712 254.19 84.592C250.414 87.472 246.606 90.096 242.766 92.464C242.126 92.848 241.326 93.232 240.366 93.616C239.47 93.936 238.638 94.096 237.87 94.096C236.526 94.096 235.854 93.488 235.854 92.272C235.854 91.696 235.95 91.12 236.142 90.544C236.398 89.904 236.654 89.328 236.91 88.816C238.574 85.36 240.526 82.032 242.766 78.832C245.006 75.632 247.406 72.624 249.966 69.808C250.03 69.744 250.062 69.648 250.062 69.52C250.062 69.392 249.934 69.296 249.678 69.232C249.422 69.168 249.23 69.136 249.102 69.136C248.91 69.136 248.558 69.2 248.046 69.328C246.83 69.648 245.582 70 244.302 70.384C243.022 70.704 241.742 70.864 240.462 70.864C240.334 70.864 240.174 70.832 239.982 70.768C239.79 70.704 239.694 70.544 239.694 70.288C239.694 70.032 239.822 69.84 240.078 69.712C240.334 69.52 240.558 69.392 240.75 69.328C242.03 68.88 243.31 68.496 244.59 68.176C245.934 67.792 247.246 67.376 248.526 66.928C250.446 66.224 252.334 65.424 254.19 64.528C256.046 63.632 257.87 62.736 259.661 61.84C259.79 61.776 259.918 61.744 260.046 61.744C260.174 61.68 260.302 61.648 260.43 61.648C260.878 61.648 261.102 61.84 261.102 62.224C261.102 62.48 261.006 62.736 260.814 62.992C260.686 63.184 260.526 63.344 260.334 63.472C257.582 65.904 254.958 68.72 252.462 71.92C250.03 75.056 247.982 78.288 246.318 81.616C246.062 82.128 245.742 82.8 245.358 83.632C244.974 84.464 244.782 85.2 244.782 85.84C244.782 86.48 245.102 86.8 245.742 86.8C246.51 86.8 247.758 86.288 249.486 85.264C251.214 84.24 253.134 82.928 255.246 81.328C257.422 79.728 259.566 78.064 261.678 76.336C263.79 74.544 265.678 72.944 267.342 71.536C269.07 70.064 270.286 68.976 270.99 68.272C271.502 67.76 272.11 67.024 272.814 66.064C273.582 65.04 273.966 64.208 273.966 63.568C273.966 63.248 273.902 63.088 273.774 63.088C273.646 63.024 273.582 62.928 273.582 62.8C273.582 62.736 273.678 62.672 273.87 62.608C274.062 62.48 274.19 62.384 274.254 62.32C274.574 62.128 275.214 61.808 276.174 61.36C277.198 60.912 278.19 60.528 279.15 60.208C280.174 59.824 280.846 59.632 281.166 59.632C281.422 59.632 281.55 59.76 281.55 60.016C281.55 60.528 281.23 61.456 280.59 62.8C280.014 64.08 279.31 65.52 278.478 67.12C277.646 68.656 276.846 70.096 276.078 71.44C275.374 72.72 274.862 73.616 274.542 74.128C272.622 77.52 270.51 81.264 268.206 85.36C265.902 89.456 263.342 93.552 260.526 97.648C257.774 101.744 254.734 105.488 251.406 108.88C248.142 112.272 244.558 114.992 240.654 117.04C236.814 119.152 232.622 120.208 228.077 120.208ZM319.012 99.664C318.756 99.664 318.628 99.632 318.628 99.568C318.628 99.504 318.628 99.472 318.628 99.472C318.692 99.472 318.724 99.44 318.724 99.376C319.556 98.352 320.388 97.36 321.22 96.4C322.052 95.44 322.82 94.448 323.524 93.424C321.156 92.464 319.076 91.088 317.284 89.296C315.556 87.44 314.692 85.136 314.692 82.384C314.692 80.528 315.172 78.704 316.132 76.912C317.156 75.12 318.436 73.712 319.972 72.688C320.292 72.496 320.58 72.4 320.836 72.4C321.156 72.4 321.316 72.496 321.316 72.688C321.316 72.816 321.092 73.104 320.644 73.552C320.196 73.936 319.748 74.576 319.3 75.472C318.852 76.368 318.628 77.648 318.628 79.312C318.628 84.432 320.868 88.24 325.348 90.736C329.316 84.848 332.868 78.768 336.004 72.496C339.204 66.16 342.468 59.888 345.796 53.68C348.036 49.52 350.628 45.456 353.572 41.488C356.58 37.52 359.844 33.968 363.364 30.832C360.74 30.128 358.052 29.616 355.3 29.296C352.612 28.912 349.892 28.72 347.14 28.72C342.852 28.72 338.5 29.2 334.084 30.16C329.732 31.12 325.7 32.656 321.988 34.768C318.276 36.88 315.268 39.696 312.964 43.216C310.724 46.672 309.604 50.96 309.604 56.08C309.604 57.232 309.668 58.576 309.796 60.112C309.988 61.584 310.308 63.024 310.756 64.432C311.268 65.84 311.972 66.992 312.868 67.888C313.828 68.784 315.108 69.232 316.708 69.232C316.836 69.232 316.996 69.264 317.188 69.328C317.38 69.328 317.476 69.424 317.476 69.616C317.476 69.808 317.284 69.936 316.9 70C316.516 70.064 316.26 70.096 316.132 70.096C314.788 70.096 313.412 69.776 312.004 69.136C309.636 68.048 307.78 66.576 306.436 64.72C305.156 62.8 304.516 60.56 304.516 58V57.52C304.516 54.128 305.252 50.768 306.724 47.44C308.516 43.28 311.14 39.824 314.596 37.072C318.052 34.256 321.956 32.048 326.308 30.448C330.724 28.784 335.236 27.6 339.844 26.896C344.452 26.192 348.804 25.84 352.9 25.84C355.396 25.84 357.892 25.968 360.388 26.224C362.884 26.416 365.348 26.768 367.78 27.28C370.596 25.232 373.604 23.6 376.804 22.384C380.004 21.168 383.332 20.56 386.788 20.56C387.94 20.56 389.092 20.72 390.244 21.04C391.46 21.36 392.484 21.904 393.316 22.672C394.148 23.376 394.564 24.432 394.564 25.84C394.564 26.224 394.436 26.864 394.18 27.76C393.988 28.592 393.732 29.392 393.412 30.16C393.092 30.928 392.708 31.312 392.26 31.312C392.004 31.312 391.876 31.184 391.876 30.928C391.876 30.608 391.94 30.288 392.068 29.968C392.196 29.584 392.26 29.2 392.26 28.816C392.26 27.344 391.684 26.224 390.532 25.456C389.38 24.624 388.036 24.08 386.5 23.824C385.028 23.504 383.716 23.344 382.564 23.344C380.26 23.344 378.084 23.76 376.036 24.592C373.988 25.424 372.068 26.512 370.276 27.856C373.796 28.944 377.412 30.384 381.124 32.176C384.836 33.968 388.26 36.112 391.396 38.608C394.532 41.104 397.06 44.048 398.98 47.44C400.9 50.768 401.86 54.544 401.86 58.768V59.92C401.86 64.144 400.9 68.048 398.98 71.632C397.124 75.216 394.628 78.48 391.492 81.424C388.356 84.304 384.9 86.8 381.124 88.912C377.348 91.024 373.604 92.72 369.892 94C367.204 94.896 364.484 95.6 361.732 96.112C358.98 96.624 356.196 96.944 353.38 97.072C352.74 97.136 352.1 97.168 351.46 97.168C350.82 97.168 350.18 97.168 349.54 97.168C343.204 97.168 336.964 96.496 330.82 95.152C330.628 95.472 330.372 95.856 330.052 96.304C329.796 96.816 329.508 97.168 329.188 97.36C328.932 97.488 328.292 97.616 327.268 97.744C326.308 97.936 325.284 98.096 324.196 98.224C323.172 98.352 322.372 98.544 321.796 98.8C321.348 98.992 320.9 99.184 320.452 99.376C320.004 99.568 319.524 99.664 319.012 99.664ZM348.292 95.248C349.188 95.248 350.052 95.216 350.884 95.152C351.78 95.152 352.644 95.12 353.476 95.056C358.532 94.736 363.364 93.84 367.972 92.368C372.324 90.832 376.388 88.688 380.164 85.936C383.94 83.184 387.076 79.92 389.572 76.144C392.068 72.304 393.572 67.984 394.084 63.184C394.148 62.672 394.18 62.192 394.18 61.744C394.244 61.296 394.276 60.848 394.276 60.4C394.276 56.368 393.444 52.784 391.78 49.648C390.18 46.512 388.004 43.824 385.252 41.584C382.5 39.28 379.428 37.328 376.036 35.728C372.708 34.064 369.348 32.688 365.956 31.6C363.46 34.16 360.932 37.392 358.372 41.296C355.876 45.136 353.38 49.328 350.884 53.872C348.388 58.416 345.956 63.056 343.588 67.792C341.284 72.528 339.14 77.072 337.156 81.424C335.172 85.776 333.38 89.648 331.78 93.04C334.468 93.744 337.188 94.288 339.94 94.672C342.692 95.056 345.476 95.248 348.292 95.248ZM331.78 75.184C331.716 75.184 331.652 75.12 331.588 74.992C331.588 74.864 331.588 74.768 331.588 74.704C331.588 74.32 331.62 73.968 331.684 73.648C331.812 73.264 331.908 72.912 331.972 72.592C332.676 69.712 333.284 66.736 333.796 63.664C334.308 60.528 334.564 57.488 334.564 54.544C334.564 54.032 334.532 53.328 334.468 52.432C334.404 51.536 334.212 50.704 333.892 49.936C333.636 49.168 333.156 48.784 332.452 48.784C331.748 48.784 331.3 49.04 331.108 49.552C330.916 50 330.66 50.224 330.34 50.224C330.212 50.224 330.148 50.128 330.148 49.936C330.148 49.808 330.212 49.616 330.34 49.36C330.852 48.144 331.652 46.992 332.74 45.904C333.828 44.816 335.076 44.272 336.484 44.272C337.636 44.272 338.5 44.656 339.076 45.424C339.652 46.192 340.004 47.12 340.132 48.208C340.324 49.232 340.42 50.192 340.42 51.088C340.42 54.8 339.652 58.544 338.116 62.32C336.644 66.096 335.108 69.648 333.508 72.976C333.444 73.232 333.188 73.68 332.74 74.32C332.356 74.896 332.036 75.184 331.78 75.184ZM402.948 94.384C402.5 94.384 401.732 94.256 400.644 94C399.62 93.808 399.108 93.424 399.108 92.848C399.108 92.272 399.332 91.344 399.78 90.064C400.228 88.784 400.58 87.824 400.836 87.184C401.348 85.776 402.116 83.888 403.14 81.52C404.228 79.088 405.38 76.528 406.596 73.84C407.876 71.152 409.156 68.72 410.436 66.544C411.716 64.368 412.836 62.832 413.796 61.936C414.692 61.104 415.62 60.592 416.58 60.4C417.54 60.144 418.596 60.016 419.748 60.016C421.796 60.016 423.844 60.144 425.892 60.4C427.94 60.656 430.02 60.784 432.132 60.784C432.772 60.784 433.284 60.592 433.668 60.208C434.116 59.76 434.34 59.216 434.34 58.576C434.34 58.384 434.308 58.192 434.244 58C434.18 57.744 434.148 57.52 434.148 57.328C434.148 57.2 434.404 57.136 434.916 57.136C436.068 57.136 436.932 57.52 437.508 58.288C438.148 59.056 438.564 59.984 438.756 61.072C439.012 62.16 439.14 63.216 439.14 64.24C439.14 65.584 438.98 66.992 438.66 68.464C438.34 69.936 437.892 71.28 437.316 72.496C436.356 74.352 434.884 76.304 432.9 78.352C430.98 80.336 428.74 82.288 426.18 84.208C423.62 86.128 420.932 87.856 418.116 89.392C415.364 90.928 412.676 92.144 410.052 93.04C407.428 93.936 405.06 94.384 402.948 94.384ZM409.284 89.872C409.924 89.872 410.564 89.776 411.204 89.584C411.844 89.392 412.484 89.2 413.124 89.008C419.204 86.896 424.164 83.344 428.004 78.352C428.964 77.008 429.86 75.344 430.692 73.36C431.524 71.312 431.94 69.456 431.94 67.792C431.94 65.872 431.3 64.432 430.02 63.472C428.74 62.448 427.172 61.936 425.316 61.936C424.42 61.936 423.62 62.064 422.916 62.32C421.828 62.704 420.612 63.664 419.268 65.2C417.924 66.736 416.58 68.592 415.236 70.768C413.892 72.88 412.644 75.088 411.492 77.392C410.34 79.696 409.412 81.84 408.708 83.824C408.004 85.744 407.652 87.28 407.652 88.432C407.652 89.392 408.196 89.872 409.284 89.872ZM439.291 94.288C438.587 94.288 437.659 94.192 436.507 94C435.419 93.744 434.875 93.104 434.875 92.08C434.875 91.504 435.035 90.96 435.355 90.448C437.083 86.608 439.259 82.736 441.883 78.832C444.507 74.864 447.419 71.184 450.619 67.792C453.819 64.336 457.147 61.424 460.603 59.056C461.691 58.352 462.971 57.872 464.443 57.616C465.979 57.36 467.355 57.232 468.571 57.232C469.019 57.232 469.435 57.232 469.819 57.232C470.267 57.232 470.683 57.296 471.067 57.424C471.387 56.4 472.251 55.664 473.659 55.216C475.067 54.704 476.219 54.448 477.115 54.448C478.075 54.448 478.555 54.8 478.555 55.504C478.555 55.952 478.427 56.432 478.171 56.944C477.915 57.456 477.723 57.904 477.595 58.288C476.955 59.696 475.867 61.328 474.331 63.184C472.859 64.976 471.227 66.672 469.435 68.272C467.643 69.872 466.043 70.992 464.635 71.632C465.083 71.632 465.883 71.664 467.035 71.728C468.251 71.728 469.435 71.856 470.587 72.112C471.739 72.304 472.411 72.656 472.603 73.168C472.539 73.296 472.411 73.36 472.219 73.36C470.171 73.616 468.155 73.84 466.171 74.032C464.251 74.224 462.267 74.576 460.219 75.088C459.323 75.344 458.427 75.6 457.531 75.856C456.635 76.112 455.739 76.4 454.843 76.72L452.443 77.584C451.931 77.584 451.451 77.36 451.003 76.912C450.619 76.464 450.267 76.048 449.947 75.664C449.307 76.624 448.571 77.808 447.739 79.216C446.907 80.56 446.171 81.936 445.531 83.344C444.891 84.752 444.571 86.032 444.571 87.184C444.571 88.336 444.923 89.168 445.627 89.68C446.331 90.192 447.195 90.448 448.219 90.448C450.139 90.448 452.283 89.904 454.651 88.816C457.019 87.728 459.323 86.448 461.563 84.976C463.803 83.44 465.659 82.096 467.131 80.944C467.323 80.752 467.483 80.656 467.611 80.656C467.867 80.656 467.995 80.88 467.995 81.328C467.995 81.776 467.771 82.288 467.323 82.864C465.979 84.272 464.187 85.744 461.947 87.28C459.707 88.752 457.371 90.032 454.939 91.12C452.507 92.208 450.267 92.912 448.219 93.232C446.747 93.424 445.275 93.648 443.803 93.904C442.331 94.16 440.827 94.288 439.291 94.288ZM451.483 73.36C455.003 72.4 458.619 71.824 462.331 71.632C462.523 71.312 462.779 70.992 463.099 70.672C463.483 70.288 463.803 69.968 464.059 69.712C465.659 68.24 467.099 66.608 468.379 64.816C469.659 63.024 470.427 61.072 470.683 58.96L470.779 58.768C470.779 58.64 470.491 58.544 469.915 58.48C469.339 58.416 468.987 58.384 468.859 58.384C467.323 58.384 465.691 58.928 463.963 60.016C462.299 61.104 460.667 62.48 459.067 64.144C457.467 65.744 455.995 67.376 454.651 69.04C453.371 70.704 452.315 72.144 451.483 73.36Z" fill="#C48F56"/>
<path d="M61.28 146V132H66.52C67.7067 132 68.7267 132.193 69.58 132.58C70.4333 132.953 71.0867 133.5 71.54 134.22C72.0067 134.927 72.24 135.787 72.24 136.8C72.24 137.787 72.0067 138.64 71.54 139.36C71.0867 140.067 70.4333 140.613 69.58 141C68.7267 141.387 67.7067 141.58 66.52 141.58H62.1L62.76 140.88V146H61.28ZM62.76 141L62.1 140.28H66.48C67.88 140.28 68.94 139.98 69.66 139.38C70.3933 138.767 70.76 137.907 70.76 136.8C70.76 135.68 70.3933 134.813 69.66 134.2C68.94 133.587 67.88 133.28 66.48 133.28H62.1L62.76 132.58V141ZM105.68 132H107.14V146H105.68V132ZM96.9202 146H95.4402V132H96.9202V146ZM105.82 139.54H96.7602V138.24H105.82V139.54ZM137.83 146.12C136.776 146.12 135.796 145.947 134.89 145.6C133.996 145.24 133.216 144.74 132.55 144.1C131.896 143.447 131.383 142.693 131.01 141.84C130.65 140.973 130.47 140.027 130.47 139C130.47 137.973 130.65 137.033 131.01 136.18C131.383 135.313 131.896 134.56 132.55 133.92C133.216 133.267 133.996 132.767 134.89 132.42C135.783 132.06 136.763 131.88 137.83 131.88C138.883 131.88 139.856 132.06 140.75 132.42C141.643 132.767 142.416 133.26 143.07 133.9C143.736 134.54 144.25 135.293 144.61 136.16C144.983 137.027 145.17 137.973 145.17 139C145.17 140.027 144.983 140.973 144.61 141.84C144.25 142.707 143.736 143.46 143.07 144.1C142.416 144.74 141.643 145.24 140.75 145.6C139.856 145.947 138.883 146.12 137.83 146.12ZM137.83 144.8C138.67 144.8 139.443 144.66 140.15 144.38C140.87 144.087 141.49 143.68 142.01 143.16C142.543 142.627 142.956 142.013 143.25 141.32C143.543 140.613 143.69 139.84 143.69 139C143.69 138.16 143.543 137.393 143.25 136.7C142.956 135.993 142.543 135.38 142.01 134.86C141.49 134.327 140.87 133.92 140.15 133.64C139.443 133.347 138.67 133.2 137.83 133.2C136.99 133.2 136.21 133.347 135.49 133.64C134.77 133.92 134.143 134.327 133.61 134.86C133.09 135.38 132.676 135.993 132.37 136.7C132.076 137.393 131.93 138.16 131.93 139C131.93 139.827 132.076 140.593 132.37 141.3C132.676 142.007 133.09 142.627 133.61 143.16C134.143 143.68 134.77 144.087 135.49 144.38C136.21 144.66 136.99 144.8 137.83 144.8ZM171.012 146V133.28H166.092V132H177.412V133.28H172.492V146H171.012ZM205.701 146.12C204.647 146.12 203.667 145.947 202.761 145.6C201.867 145.24 201.087 144.74 200.421 144.1C199.767 143.447 199.254 142.693 198.881 141.84C198.521 140.973 198.341 140.027 198.341 139C198.341 137.973 198.521 137.033 198.881 136.18C199.254 135.313 199.767 134.56 200.421 133.92C201.087 133.267 201.867 132.767 202.761 132.42C203.654 132.06 204.634 131.88 205.701 131.88C206.754 131.88 207.727 132.06 208.621 132.42C209.514 132.767 210.287 133.26 210.941 133.9C211.607 134.54 212.121 135.293 212.481 136.16C212.854 137.027 213.041 137.973 213.041 139C213.041 140.027 212.854 140.973 212.481 141.84C212.121 142.707 211.607 143.46 210.941 144.1C210.287 144.74 209.514 145.24 208.621 145.6C207.727 145.947 206.754 146.12 205.701 146.12ZM205.701 144.8C206.541 144.8 207.314 144.66 208.021 144.38C208.741 144.087 209.361 143.68 209.881 143.16C210.414 142.627 210.827 142.013 211.121 141.32C211.414 140.613 211.561 139.84 211.561 139C211.561 138.16 211.414 137.393 211.121 136.7C210.827 135.993 210.414 135.38 209.881 134.86C209.361 134.327 208.741 133.92 208.021 133.64C207.314 133.347 206.541 133.2 205.701 133.2C204.861 133.2 204.081 133.347 203.361 133.64C202.641 133.92 202.014 134.327 201.481 134.86C200.961 135.38 200.547 135.993 200.241 136.7C199.947 137.393 199.801 138.16 199.801 139C199.801 139.827 199.947 140.593 200.241 141.3C200.547 142.007 200.961 142.627 201.481 143.16C202.014 143.68 202.641 144.087 203.361 144.38C204.081 144.66 204.861 144.8 205.701 144.8ZM242.498 146.12C241.431 146.12 240.445 145.947 239.538 145.6C238.645 145.24 237.865 144.74 237.198 144.1C236.545 143.46 236.031 142.707 235.658 141.84C235.298 140.973 235.118 140.027 235.118 139C235.118 137.973 235.298 137.027 235.658 136.16C236.031 135.293 236.551 134.54 237.218 133.9C237.885 133.26 238.665 132.767 239.558 132.42C240.465 132.06 241.451 131.88 242.518 131.88C243.585 131.88 244.558 132.047 245.438 132.38C246.331 132.713 247.091 133.22 247.718 133.9L246.798 134.84C246.211 134.253 245.565 133.833 244.858 133.58C244.151 133.327 243.391 133.2 242.578 133.2C241.711 133.2 240.911 133.347 240.178 133.64C239.458 133.92 238.825 134.327 238.278 134.86C237.745 135.38 237.325 135.993 237.018 136.7C236.725 137.393 236.578 138.16 236.578 139C236.578 139.827 236.725 140.593 237.018 141.3C237.325 142.007 237.745 142.627 238.278 143.16C238.825 143.68 239.458 144.087 240.178 144.38C240.911 144.66 241.705 144.8 242.558 144.8C243.358 144.8 244.111 144.68 244.818 144.44C245.538 144.2 246.198 143.793 246.798 143.22L247.638 144.34C246.971 144.927 246.191 145.373 245.298 145.68C244.405 145.973 243.471 146.12 242.498 146.12ZM246.218 144.16V139H247.638V144.34L246.218 144.16ZM271.827 146V132H277.067C278.254 132 279.274 132.193 280.127 132.58C280.98 132.953 281.634 133.5 282.087 134.22C282.554 134.927 282.787 135.787 282.787 136.8C282.787 137.787 282.554 138.64 282.087 139.36C281.634 140.067 280.98 140.613 280.127 141C279.274 141.373 278.254 141.56 277.067 141.56H272.647L273.307 140.88V146H271.827ZM281.387 146L277.787 140.92H279.387L283.007 146H281.387ZM273.307 141L272.647 140.3H277.027C278.427 140.3 279.487 139.993 280.207 139.38C280.94 138.767 281.307 137.907 281.307 136.8C281.307 135.68 280.94 134.813 280.207 134.2C279.487 133.587 278.427 133.28 277.027 133.28H272.647L273.307 132.58V141ZM304.04 146L310.44 132H311.9L318.3 146H316.74L310.86 132.86H311.46L305.58 146H304.04ZM306.56 142.26L307 141.06H315.14L315.58 142.26H306.56ZM340.616 146V132H345.856C347.043 132 348.063 132.193 348.916 132.58C349.769 132.953 350.423 133.5 350.876 134.22C351.343 134.927 351.576 135.787 351.576 136.8C351.576 137.787 351.343 138.64 350.876 139.36C350.423 140.067 349.769 140.613 348.916 141C348.063 141.387 347.043 141.58 345.856 141.58H341.436L342.096 140.88V146H340.616ZM342.096 141L341.436 140.28H345.816C347.216 140.28 348.276 139.98 348.996 139.38C349.729 138.767 350.096 137.907 350.096 136.8C350.096 135.68 349.729 134.813 348.996 134.2C348.276 133.587 347.216 133.28 345.816 133.28H341.436L342.096 132.58V141ZM385.016 132H386.476V146H385.016V132ZM376.256 146H374.776V132H376.256V146ZM385.156 139.54H376.096V138.24H385.156V139.54ZM414.386 146V140.8L414.726 141.72L408.786 132H410.366L415.586 140.54H414.746L419.966 132H421.446L415.506 141.72L415.846 140.8V146H414.386Z" fill="#C48F56"/>
</svg>
