<svg width="170" height="48" viewBox="0 0 170 48" fill="none" xmlns="http://www.w3.org/2000/svg">
<path fill-rule="evenodd" clip-rule="evenodd" d="M39.9928 32.2552C39.9928 32.1914 40.0087 32.0957 40.0405 31.9681C40.1042 31.8724 40.152 31.7926 40.1838 31.7288C40.2793 31.5374 40.3907 31.2822 40.5181 30.9631C40.6454 30.6441 40.7887 30.2612 40.9479 29.8146C41.4254 28.6022 41.8552 27.4696 42.2372 26.4167C42.6511 25.332 43.1604 23.9761 43.7653 22.349L45.3889 18.1854C44.4975 18.0259 43.8927 17.7547 43.5743 17.3719C43.2878 16.9571 43.1445 16.5902 43.1445 16.2712C43.1445 16.1117 43.1764 15.9362 43.24 15.7448C43.3037 15.5533 43.3833 15.4417 43.4788 15.4098C43.5743 15.346 43.6539 15.3141 43.7176 15.3141C43.8131 15.3141 43.8608 15.346 43.8608 15.4098C43.8608 15.4736 43.8131 15.5693 43.7176 15.6969C43.6539 15.8245 43.622 15.9681 43.622 16.1276C43.622 16.3829 43.7016 16.6062 43.8608 16.7976C43.9882 16.9571 44.1951 17.1007 44.4816 17.2283C44.7681 17.3559 45.0228 17.4197 45.2457 17.4197C45.564 17.4197 45.7391 17.34 45.771 17.1805C46.8852 14.5324 48.1268 11.996 49.4957 9.57128C50.8965 7.14656 52.6634 5.04087 54.7964 3.25424C56.1653 2.13759 57.4387 1.32403 58.6166 0.813557C59.8264 0.271186 60.877 0 61.7684 0C62.8826 0 63.7581 0.334994 64.3948 1.00498C65.0633 1.64307 65.3976 2.52044 65.3976 3.63709C65.3976 4.4666 65.1907 5.40778 64.7768 6.46062C64.363 7.48155 63.7103 8.58225 62.8189 9.76271C61.5455 11.4217 60.0174 12.8255 58.2346 13.9741C56.4518 15.1226 54.5894 16.0319 52.6475 16.7019C50.7055 17.34 48.859 17.7866 47.108 18.0419C46.7579 18.999 46.344 20.0997 45.8665 21.344C45.4208 22.5563 45.0069 23.7049 44.6249 24.7896C44.2428 25.8744 43.9563 26.7039 43.7653 27.2782C45.0387 25.9701 46.2485 24.6939 47.3946 23.4496C48.5725 22.2054 49.6549 20.993 50.6418 19.8126C51.2467 19.1107 51.9789 18.7597 52.8385 18.7597C52.9976 18.7597 53.1727 18.7757 53.3638 18.8076C53.5866 18.8395 53.7617 18.8873 53.889 18.9511C54.0482 19.015 54.096 19.0788 54.0323 19.1426C53.9686 19.2064 53.8731 19.2542 53.7458 19.2861C53.5866 19.318 53.3638 19.4616 53.0772 19.7168C52.8225 19.9402 52.5042 20.3709 52.1222 21.009C51.4536 21.998 50.8806 23.0508 50.403 24.1675C49.9255 25.2522 49.5912 26.4008 49.4002 27.6132L49.3047 28.1874V28.7139C49.3047 29.1924 49.3843 29.5593 49.5435 29.8146C49.7345 30.0698 50.021 30.1495 50.403 30.0538C50.8806 29.8943 51.3899 29.5912 51.9311 29.1446C52.4724 28.666 52.9976 28.1555 53.507 27.6132C54.0164 27.0708 54.4302 26.6082 54.7486 26.2253C54.8123 26.1615 55.0192 25.9063 55.3694 25.4596C55.7514 25.013 56.1494 24.5344 56.5632 24.0239C57.0089 23.4816 57.3273 23.0828 57.5183 22.8275C57.582 22.7637 57.6138 22.7797 57.6138 22.8754C57.6775 23.0349 57.6616 23.1625 57.5661 23.2582C57.184 23.7687 56.7861 24.3111 56.3722 24.8853C55.9584 25.4277 55.5286 25.9701 55.0829 26.5125C54.4462 27.2782 53.7617 28.0279 53.0295 28.7617C52.3291 29.4636 51.565 30.0698 50.7373 30.5803C50.0051 30.995 49.4002 31.2024 48.9227 31.2024C48.6362 31.2024 48.3815 31.1386 48.1586 31.011C47.8403 30.8195 47.6015 30.5484 47.4423 30.1974C47.315 29.8146 47.2513 29.3998 47.2513 28.9531C47.2513 28.0279 47.4423 27.007 47.8244 25.8903C48.2064 24.7737 48.5725 23.8485 48.9227 23.1147C47.8403 23.9761 46.933 24.7258 46.2007 25.3639C45.8187 25.7149 45.4526 26.0818 45.1024 26.4646C44.7522 26.8155 44.4179 27.1824 44.0996 27.5653C43.7494 28.0439 43.447 28.6341 43.1923 29.336C42.9376 30.0379 42.7625 30.6122 42.667 31.0588C42.3486 31.2502 41.9188 31.4576 41.3776 31.681L39.9928 32.3031V32.2552ZM47.2991 17.4197C49.0819 17.1326 50.8965 16.5902 52.743 15.7926C54.5894 14.9631 56.3245 13.9422 57.9481 12.7298C59.6035 11.4855 60.9884 10.1137 62.1026 8.61416C62.994 7.40179 63.6307 6.34895 64.0128 5.45563C64.3948 4.53041 64.5858 3.74875 64.5858 3.11067C64.5858 2.34496 64.347 1.77069 63.8695 1.38784C63.392 1.00498 62.7712 0.813557 62.0071 0.813557C61.0521 0.813557 59.9856 1.1007 58.8076 1.67497C57.6297 2.21735 56.4996 3.04686 55.4172 4.16351C54.3029 5.31206 53.2046 6.68395 52.1222 8.27916C51.0716 9.87438 50.1165 11.4855 49.257 13.1127C48.3974 14.7079 47.7448 16.1436 47.2991 17.4197ZM8.26359 36.7429C7.42717 35.8525 7.00896 34.5799 7.00896 32.9252C7.00896 31.1386 7.34323 29.5593 8.01178 28.1874C8.71216 26.8155 9.47622 25.6351 10.3039 24.6461C10.8452 24.0399 11.4182 23.5613 12.0231 23.2104C12.6279 22.8275 13.0418 22.5723 13.2647 22.4447C13.4875 22.349 13.5671 22.4128 13.5034 22.6361C13.4716 22.8275 13.392 23.0668 13.2647 23.3539C13.1373 23.6411 13.0418 23.8644 12.9781 24.0239C12.9145 24.1515 12.7712 24.2792 12.5484 24.4068C12.3573 24.5344 12.1822 24.5982 12.0231 24.5982C11.7684 24.5982 11.6251 24.4706 11.5933 24.2154C10.5109 25.2363 9.76274 26.3529 9.34888 27.5653C8.96685 28.7458 8.77584 29.8943 8.77584 31.011C8.77584 32.8295 9.1897 34.1535 10.0174 34.983C10.877 35.8126 11.8957 36.2273 13.0736 36.2273C14.2197 36.2273 15.4136 35.8923 16.6552 35.2223C17.8967 34.5842 18.9792 33.675 19.9024 32.4945C20.8893 31.2502 21.8603 29.7029 22.8153 27.8524C23.7704 25.9701 24.6618 23.9761 25.4895 21.8704C26.3491 19.7328 27.1132 17.6431 27.7817 15.6012C28.4821 13.5274 29.0551 11.677 29.5008 10.0498C29.5963 9.79461 29.6441 9.58724 29.6441 9.42771C29.6441 8.5982 29.7078 7.99202 29.8351 7.60917C29.9943 7.19441 30.2331 6.82752 30.5514 6.50847L23.7227 8.85344C21.9399 9.45962 21.0485 10.5603 21.0485 12.1555C21.0485 12.8893 21.2713 13.655 21.717 14.4526C22.1946 15.2502 22.5288 15.984 22.7198 16.654C22.7835 16.7817 22.8153 16.9252 22.8153 17.0847V17.4676C22.8153 18.2652 22.5447 18.9033 22.0035 19.3819C21.4942 19.8604 20.953 20.0997 20.3799 20.0997C20.0934 20.0997 19.8228 20.0199 19.5681 19.8604C19.4408 19.7966 19.393 19.7328 19.4249 19.669C19.4885 19.5733 19.584 19.5573 19.7114 19.6211C20.0616 19.8445 20.4595 19.669 20.9052 19.0947C21.3827 18.5204 21.6215 17.7866 21.6215 16.8933C21.6215 16.5105 21.5738 16.1276 21.4783 15.7448C21.3827 15.3619 21.1917 14.8833 20.9052 14.3091C20.6187 13.7029 20.3958 13.2403 20.2367 12.9212C20.0138 12.5065 19.8546 12.1396 19.7591 11.8205C19.6955 11.4696 19.6636 11.1505 19.6636 10.8634C19.6636 10.1296 19.9024 9.52343 20.3799 9.04486C20.8575 8.5663 21.4623 8.18345 22.1946 7.89631C22.9268 7.60917 23.6749 7.40179 24.439 7.27418C25.203 7.11465 25.8716 6.98704 26.4446 6.89132C26.8585 6.82752 27.3838 6.7318 28.0205 6.60418C28.689 6.47657 29.3735 6.31705 30.0739 6.12562C30.7743 5.90229 31.3632 5.67896 31.8408 5.45563L31.9363 5.35992L32.5571 4.73779C32.7799 4.54636 33.0187 4.30708 33.2734 4.01994C33.528 3.86042 33.6554 3.92423 33.6554 4.21137C33.6554 4.4666 33.5599 4.8335 33.3689 5.31206C33.2097 5.75872 33.0505 6.04586 32.8913 6.17348C32.6685 6.39681 32.4297 6.6999 32.175 7.08275C31.9522 7.4337 31.6657 8.08774 31.3155 9.04486C30.6469 10.7677 29.9306 12.7458 29.1666 14.9791C28.4343 17.1805 27.6225 19.4457 26.7311 21.7747C25.8716 24.1037 24.8847 26.337 23.7704 28.4746C23.4639 29.08 23.1458 29.6649 22.8162 30.2294C23.4223 30.0434 24.1728 29.8978 25.0676 29.7926C25.3567 29.7539 25.6661 29.7583 25.984 29.7629C27.0572 29.7782 28.2269 29.795 29.0358 28.1574C29.0332 28.0734 29.0319 27.9877 29.0319 27.9003C29.0319 26.8155 29.2706 25.7308 29.7482 24.6461C30.2257 23.5613 30.8624 22.5882 31.6583 21.7268C32.486 20.8335 33.3934 20.1635 34.3803 19.7168C34.6349 19.6211 34.8737 19.5414 35.0966 19.4776C35.3194 19.4138 35.5423 19.3819 35.7651 19.3819C36.2426 19.3819 36.6565 19.5095 37.0067 19.7647C37.3569 20.0199 37.532 20.4187 37.532 20.9611C37.532 21.0887 37.5161 21.2004 37.4842 21.2961C37.4842 21.3918 37.4683 21.5035 37.4365 21.6311C37.4046 21.7587 37.3091 21.8385 37.15 21.8704C37.0226 21.9023 36.959 21.8544 36.959 21.7268C37.0226 21.1844 36.9112 20.7697 36.6247 20.4825C36.37 20.1635 36.0357 20.004 35.6219 20.004C35.3353 20.004 35.0647 20.0678 34.81 20.1954C34.0142 20.5783 33.3138 21.1685 32.7089 21.9661C32.1359 22.7318 31.6902 23.5773 31.3718 24.5025C31.0853 25.4277 30.942 26.321 30.942 27.1824C30.9462 27.4284 30.9609 27.658 30.9859 27.8713C31.4949 28.6357 32.0682 29.4863 32.6361 29.9519C32.6909 29.956 32.747 29.9581 32.8044 29.9581C33.473 29.9581 34.1733 29.6869 34.9056 29.1446C35.6378 28.6022 36.2745 27.8524 36.8157 26.8953C37.3569 25.9382 37.7867 24.9172 38.105 23.8325C38.4234 22.7159 38.5826 21.7109 38.5826 20.8175C38.5826 20.2752 38.5189 19.7807 38.3916 19.334C38.2642 18.8873 38.0414 18.5523 37.723 18.329C37.5638 18.2014 37.3091 18.1376 36.959 18.1376C36.4177 18.1376 36.0039 18.2492 35.7174 18.4726C35.5263 18.6002 35.4149 18.664 35.3831 18.664C35.2557 18.664 35.1921 18.5842 35.1921 18.4247C35.1921 18.2971 35.2557 18.1376 35.3831 17.9462C35.5741 17.6271 35.8765 17.3878 36.2904 17.2283C36.7043 17.0688 37.134 16.989 37.5797 16.989C38.0891 16.989 38.5348 17.1007 38.9168 17.324C39.7446 17.7707 40.1584 18.7119 40.1584 20.1476C40.1584 21.1685 39.9356 22.317 39.4899 23.5932C39.076 24.8694 38.4871 26.0977 37.723 27.2782C36.9908 28.4267 36.1471 29.3679 35.1921 30.1017C34.5177 30.6273 33.8433 30.9983 33.169 31.2147C32.8513 31.704 30.8845 31.4414 29.0785 31.2003C27.6504 31.0097 26.3229 30.8325 25.9911 31.0512C24.8628 31.7947 26.2571 32.8783 30.174 34.3017C31.3915 34.7442 32.6465 35.1618 33.9392 35.5547C35.1413 35.9531 36.124 36.2525 36.8873 36.453C37.8624 36.7305 38.8862 36.9487 39.9588 37.1078C41.0314 37.2669 41.7752 37.3449 42.1903 37.342C44.7339 37.3434 47.2586 37.3573 49.7645 37.3835C52.2329 37.4345 54.6106 37.4911 56.8979 37.5533C59.2004 37.6594 61.0238 37.7837 62.368 37.9261C63.7652 38.0878 65.3817 38.3484 67.2176 38.7079C67.8597 38.8259 68.4378 38.9591 68.9518 39.1074C69.5188 39.275 70.0139 39.4358 70.4374 39.5896C72.5547 40.3591 73.6913 41.2336 73.8473 42.2132C74.0032 43.1928 73.4606 44.0915 72.2195 44.9095C71.4673 45.4052 70.4845 45.8364 69.2712 46.203C68.0733 46.6136 66.6935 46.9005 65.132 47.0637C64.7852 47.1299 64.4265 47.0957 64.056 46.961C63.8442 46.8841 63.7948 46.8084 63.9076 46.7341C64.0581 46.6349 64.3332 46.5619 64.733 46.5149C66.0229 46.3684 67.0822 46.1573 67.911 45.8817C68.7552 45.6501 69.4029 45.3856 69.8542 45.0882C70.945 44.3694 71.1372 43.5933 70.431 42.7598C69.7248 41.9263 68.6307 41.2403 67.1486 40.7017L66.434 40.442C66.2752 40.3843 66.0711 40.3294 65.8218 40.2772C63.2824 39.6236 60.3628 39.1393 57.0629 38.8245C53.7783 38.5538 50.3885 38.3794 46.8936 38.3013C43.4516 38.2425 40.1795 38.2071 37.0774 38.1949C34.662 38.1631 31.7222 38.1522 28.2579 38.1622C24.703 38.1778 21.3508 38.1969 17.7054 38.218C15.238 38.218 13.8955 38.389 12.8122 38.5269C11.2768 38.7224 10.262 38.8516 7.30286 38.3338C4.22219 37.7948 2.79559 38.0549 1.68102 38.258C1.2317 38.3399 0.833081 38.4126 0.39725 38.4199C0.125622 38.4365 -0.00670698 38.3884 0.000261449 38.2756C0.0601637 38.182 0.240558 38.0361 0.541445 37.8378L0.936359 37.5775C1.35008 37.3049 1.91493 37.068 2.63092 36.8667C3.34691 36.6655 4.01066 36.5798 4.62217 36.6098C5.79912 36.655 7.01292 36.6994 8.26359 36.7429ZM16.8325 37.0112C18.0637 37.046 19.3231 37.0801 20.6106 37.1135C26.4457 37.2729 32.0426 37.3457 37.4013 37.332C36.3663 37.1482 35.082 36.9121 33.5484 36.624C31.9618 36.3166 30.3599 35.9651 28.7427 35.5697C27.0726 35.155 25.6023 34.7168 24.332 34.2552C22.8821 33.7283 21.8655 33.1748 21.2821 32.5948C20.8987 33.1265 20.5024 33.6355 20.0934 34.1216C19.0989 35.3037 18.0119 36.2669 16.8325 37.0112ZM54.8049 30.676C54.7413 30.7717 54.7094 30.8674 54.7094 30.9631V31.011C54.9323 30.8833 55.171 30.7876 55.4257 30.7238C55.6804 30.66 55.9192 30.6122 56.142 30.5803C56.3967 30.5164 56.6196 30.4526 56.8106 30.3888C57.0334 30.2931 57.1608 30.1974 57.1926 30.1017C57.32 29.655 57.4791 29.1924 57.6701 28.7139C57.8612 28.2353 58.0681 27.8365 58.2909 27.5174C58.8321 26.6879 59.5484 25.8584 60.4398 25.0289C61.3631 24.1994 62.3181 23.3858 63.3051 22.5882C62.8593 23.4496 62.5569 24.1196 62.3977 24.5982C62.2386 25.1087 62.0794 25.651 61.9202 26.2253C61.7929 26.7996 61.7292 27.3579 61.7292 27.9003C61.7292 28.5384 61.8724 29.0967 62.159 29.5753C62.4455 30.0219 62.9549 30.2453 63.6871 30.2453C64.1965 30.2453 64.7217 30.1176 65.2629 29.8624C65.8041 29.6072 66.2976 29.2881 66.7433 28.9053C67.2208 28.5224 67.6984 28.0598 68.1759 27.5174C68.6853 26.9751 69.1628 26.4487 69.6085 25.9382C70.0542 25.3958 70.4521 24.8853 70.8023 24.4068C71.1525 23.9282 71.4391 23.5294 71.6619 23.2104C71.7574 23.1147 71.7733 22.987 71.7097 22.8275L71.6142 22.7318L70.086 24.6461C69.4493 25.4437 68.7967 26.2094 68.1282 26.9432C67.4596 27.6451 66.9025 28.1555 66.4568 28.4746C65.6291 29.0488 64.9605 29.336 64.4511 29.336C64.1009 29.336 63.8463 29.1924 63.6871 28.9053C63.5279 28.6181 63.4483 28.2512 63.4483 27.8046C63.4483 27.1027 63.5757 26.337 63.8303 25.5075C64.1169 24.5823 64.5148 23.6251 65.0242 22.6361C65.5654 21.6152 66.1384 20.7378 66.7433 20.004C67.3482 19.2702 67.8735 18.8395 68.3192 18.7119C68.4465 18.68 68.542 18.6321 68.6057 18.5683C68.7012 18.5045 68.6694 18.4407 68.5102 18.3769C68.2555 18.2493 67.9371 18.1854 67.5551 18.1854C66.6 18.1854 65.8041 18.5523 65.1674 19.2861C64.1169 20.4985 63.0185 21.7268 61.8724 22.9711C60.7264 24.2154 59.4848 25.5075 58.1477 26.8475L59.4848 23.8325C59.5484 23.673 59.7395 23.2582 60.0578 22.5882C60.408 21.9182 60.7264 21.2323 61.0129 20.5304C61.1721 20.1157 61.2835 19.7328 61.3472 19.3819C61.4427 19.0309 61.4904 18.7438 61.4904 18.5204C61.4904 18.1695 61.3631 17.994 61.1084 17.994H61.0129C60.9492 17.994 60.79 18.0578 60.5354 18.1854C60.3125 18.3131 60.1692 18.3928 60.1056 18.4247C59.5962 18.7438 59.1027 18.999 58.6252 19.1904C58.0522 19.4138 57.4314 19.653 56.7628 19.9083C56.0943 20.1316 55.6963 20.2752 55.569 20.339C55.5053 20.3709 55.4416 20.4506 55.378 20.5783C55.3461 20.7059 55.3302 20.8016 55.3302 20.8654C55.6486 20.7059 55.9988 20.5623 56.3808 20.4347C56.7947 20.2752 57.1608 20.1954 57.4791 20.1954C57.9248 20.1954 58.2273 20.2911 58.3864 20.4825C58.5456 20.674 58.6252 20.9292 58.6252 21.2483C58.6252 21.4397 58.6093 21.5992 58.5775 21.7268C58.5456 21.9182 58.482 22.1097 58.3864 22.3011C58.3228 22.4925 58.2591 22.6999 58.1954 22.9232C58.0044 23.338 57.7657 23.9123 57.4791 24.6461C57.1926 25.348 56.8902 26.0498 56.5718 26.7517C56.2853 27.4536 56.0147 28.0439 55.76 28.5224C55.5372 28.9372 55.3621 29.3041 55.2347 29.6231C55.1392 29.9422 55.0437 30.2134 54.9482 30.4367C54.9164 30.5005 54.8686 30.5803 54.8049 30.676ZM68.793 30.9631C68.793 30.8674 68.8248 30.7717 68.8885 30.676C68.9521 30.5803 68.9999 30.5005 69.0317 30.4367C69.1272 30.2134 69.2227 29.9422 69.3183 29.6231C69.4456 29.3041 69.6207 28.9372 69.8435 28.5224C70.0982 28.0439 70.3688 27.4536 70.6554 26.7517C70.9737 26.0498 71.2761 25.348 71.5627 24.6461C71.8492 23.9123 72.088 23.338 72.279 22.9232C72.3426 22.6999 72.4063 22.4925 72.47 22.3011C72.5655 22.1097 72.6292 21.9182 72.661 21.7268C72.6928 21.5992 72.7087 21.4397 72.7087 21.2483C72.7087 20.9292 72.6292 20.674 72.47 20.4825C72.3108 20.2911 72.0084 20.1954 71.5627 20.1954C71.2443 20.1954 70.8782 20.2752 70.4643 20.4347C70.0823 20.5623 69.7321 20.7059 69.4138 20.8654C69.4138 20.8016 69.4297 20.7059 69.4615 20.5783C69.5252 20.4506 69.5889 20.3709 69.6525 20.339C69.7799 20.2752 70.1778 20.1316 70.8464 19.9083C71.5149 19.653 72.1357 19.4138 72.7087 19.1904C73.1863 18.999 73.6797 18.7438 74.1891 18.4247C74.2528 18.3928 74.396 18.3131 74.6189 18.1854C74.8736 18.0578 75.0328 17.994 75.0964 17.994H75.1919C75.4466 17.994 75.574 18.1695 75.574 18.5204C75.574 18.7438 75.5262 19.0309 75.4307 19.3819C75.367 19.7328 75.2556 20.1157 75.0964 20.5304C74.8099 21.2323 74.4915 21.9182 74.1414 22.5882C73.823 23.2582 73.632 23.673 73.5683 23.8325L72.2312 26.8475C73.5683 25.5075 74.8099 24.2154 75.956 22.9711C77.1021 21.7268 78.2004 20.4985 79.251 19.2861C79.8877 18.5523 80.6836 18.1854 81.6386 18.1854C82.0207 18.1854 82.339 18.2493 82.5937 18.3769C82.7529 18.4407 82.7847 18.5045 82.6892 18.5683C82.6256 18.6321 82.53 18.68 82.4027 18.7119C81.957 18.8395 81.4317 19.2702 80.8268 20.004C80.222 20.7378 79.6489 21.6152 79.1077 22.6361C78.5983 23.6251 78.2004 24.5823 77.9139 25.5075C77.6592 26.337 77.5319 27.1027 77.5319 27.8046C77.5319 28.2512 77.6114 28.6181 77.7706 28.9053C77.9298 29.1924 78.1845 29.336 78.5347 29.336C79.044 29.336 79.7126 29.0488 80.5403 28.4746C80.986 28.1555 81.5431 27.6451 82.2117 26.9432C82.7487 26.3537 83.2755 25.7437 83.792 25.113C84.0323 24.7979 84.2684 24.4827 84.5001 24.1675L85.5029 22.7318C86.0441 21.9023 86.6331 21.2483 87.2698 20.7697C87.9065 20.2592 88.5114 20.004 89.0845 20.004C89.8803 20.004 90.4215 20.3071 90.7081 20.9133C91.0264 21.4875 91.1856 22.2213 91.1856 23.1147C91.1856 23.8804 91.106 24.7099 90.9468 25.6032C90.7877 26.4646 90.5966 27.2941 90.3738 28.0917C90.1509 28.8574 89.9599 29.4955 89.8008 30.006C91.4244 27.9322 93.048 25.7149 94.6716 23.3539C96.3271 20.9611 97.7915 18.7916 99.0649 16.8455C99.2241 16.5902 99.4947 16.3828 99.8767 16.2233C100.259 16.0638 100.625 15.984 100.975 15.984H101.309C101.564 15.984 101.739 16 101.835 16.0319C101.93 16.0957 101.93 16.1755 101.835 16.2712C101.357 16.8455 100.641 17.7228 99.6857 18.9033C98.7307 20.0518 97.6801 21.344 96.534 22.7797C95.4197 24.1834 94.3214 25.5713 93.239 26.9432C92.1884 28.2831 91.3129 29.4317 90.6126 30.3888C89.6893 31.6012 88.7343 32.8933 87.7474 34.2652C86.7604 35.669 85.885 37.0887 85.1209 38.5244C84.3887 39.992 83.9112 41.4118 83.6883 42.7836C83.6565 42.9113 83.6406 43.0229 83.6406 43.1186V43.5494C83.6406 44.4427 83.8793 45.2722 84.3569 46.0379C84.8344 46.8036 85.5348 47.1864 86.458 47.1864C86.84 47.1864 87.2539 47.0907 87.6996 46.8993C88.1771 46.7398 88.6706 46.4526 89.18 46.0379C89.3391 45.9103 89.4824 45.8465 89.6097 45.8465C89.7052 45.8465 89.753 45.9103 89.753 46.0379C89.753 46.2612 89.6734 46.4207 89.5142 46.5164C88.9094 47.0269 88.2567 47.3938 87.5563 47.6171C86.8878 47.8724 86.2352 48 85.5985 48C84.5479 48 83.6406 47.681 82.8765 47.0429C82.1124 46.4048 81.7304 45.4477 81.7304 44.1715C81.7304 43.9162 81.7463 43.6291 81.7782 43.3101C81.81 43.0229 81.8737 42.7198 81.9692 42.4008C82.2239 41.4756 82.4945 40.6939 82.781 40.0558C83.0675 39.4496 83.5132 38.668 84.1181 37.7109C84.7548 36.7856 85.4234 35.8285 86.1237 34.8395C86.856 33.8504 87.6041 32.8614 88.3681 31.8724C88.4955 31.7129 88.6547 31.3779 88.8457 30.8674C89.0367 30.3569 89.164 29.8305 89.2277 29.2881C89.2914 28.8734 89.3391 28.3151 89.371 27.6132C89.4346 26.8794 89.4665 26.1456 89.4665 25.4118C89.4665 23.0508 88.9889 21.8704 88.0339 21.8704C87.3653 21.8704 86.5694 22.4287 85.6462 23.5454L84.3654 25.0963C84.1546 25.3678 83.9301 25.6485 83.692 25.9382C83.2463 26.4487 82.7688 26.9751 82.2594 27.5174C81.7819 28.0598 81.3044 28.5224 80.8268 28.9053C80.3811 29.2881 79.8877 29.6072 79.3465 29.8624C78.8053 30.1176 78.28 30.2453 77.7706 30.2453C77.0384 30.2453 76.529 30.0219 76.2425 29.5753C75.956 29.0967 75.8127 28.5384 75.8127 27.9003C75.8127 27.3579 75.8764 26.7996 76.0037 26.2253C76.1629 25.651 76.3221 25.1087 76.4813 24.5982C76.6405 24.1196 76.9429 23.4496 77.3886 22.5882C76.4017 23.3858 75.4466 24.1994 74.5234 25.0289C73.632 25.8584 72.9157 26.6879 72.3745 27.5174C72.1516 27.8365 71.9447 28.2353 71.7537 28.7139C71.5627 29.1924 71.4035 29.655 71.2761 30.1017C71.2443 30.1974 71.117 30.2931 70.8941 30.3888C70.7031 30.4526 70.4803 30.5164 70.2256 30.5803C70.0027 30.6122 69.764 30.66 69.5093 30.7238C69.2546 30.7876 69.0158 30.8833 68.793 31.011V30.9631ZM106.339 31.681C106.116 31.681 106.1 31.5214 106.291 31.2024C106.386 31.0429 106.625 30.7079 107.007 30.1974C107.389 29.6869 107.978 29.4317 108.774 29.4317C109.029 29.4317 109.284 29.4477 109.538 29.4796C109.825 29.5115 110.127 29.5274 110.446 29.5274C111.05 29.5274 111.448 29.4636 111.639 29.336C111.83 29.1765 112.085 28.9053 112.403 28.5224C112.467 28.4267 112.658 28.012 112.976 27.2782C113.327 26.5444 113.756 25.5872 114.266 24.4068C114.775 23.2263 115.332 21.9342 115.937 20.5304C116.542 19.1266 117.131 17.7228 117.704 16.319C118.309 14.9153 118.866 13.6072 119.375 12.3948C119.917 11.1505 120.346 10.1296 120.665 9.332C120.219 9.17248 119.614 8.99701 118.85 8.80558C118.086 8.61416 117.258 8.45463 116.367 8.32702C115.507 8.16749 114.68 8.08773 113.884 8.08773C113.47 8.08773 113.072 8.11964 112.69 8.18345C112.34 8.21535 112.037 8.29511 111.783 8.42273C109.65 9.41176 108.583 10.8634 108.583 12.7777C108.583 13.4796 108.726 14.2453 109.013 15.0748C109.299 15.9043 109.65 16.7019 110.064 17.4676C110.477 18.2014 110.939 18.9511 111.448 19.7168C111.512 19.8445 111.496 19.9402 111.401 20.004C111.305 20.0678 111.226 20.0359 111.162 19.9083C110.652 19.1426 110.111 18.3928 109.538 17.659C108.965 16.8933 108.472 16.1117 108.058 15.3141C107.676 14.4845 107.485 13.6072 107.485 12.682V12.2034L107.58 11.6291C107.931 9.74676 108.71 8.40678 109.92 7.60917C111.162 6.81156 112.706 6.3649 114.552 6.26919C115.157 6.23729 115.889 6.28514 116.749 6.41276C117.64 6.54038 118.516 6.6999 119.375 6.89132C120.235 7.08275 120.919 7.27418 121.429 7.4656C122.066 6.06181 122.83 4.96111 123.721 4.16351C124.644 3.334 125.79 2.91924 127.159 2.91924C127.382 2.91924 127.621 2.9671 127.876 3.06281C128.13 3.15852 128.305 3.30209 128.401 3.49352C128.433 3.52542 128.449 3.57328 128.449 3.63709C128.449 3.7647 128.369 3.84447 128.21 3.87637C128.082 3.90827 127.987 3.86042 127.923 3.7328C127.923 3.7009 127.844 3.65304 127.685 3.58923C127.557 3.52542 127.382 3.49352 127.159 3.49352C126.363 3.49352 125.679 3.7328 125.106 4.21137C124.533 4.65803 124.055 5.2323 123.673 5.93419C123.323 6.60419 123.021 7.27418 122.766 7.94417C124.167 8.42273 125.552 9.09272 126.92 9.95413C128.289 10.7836 129.547 11.7727 130.693 12.9212C131.839 14.0379 132.746 15.2981 133.415 16.7019C134.115 18.0738 134.466 19.5573 134.466 21.1525C134.466 22.5563 134.052 23.8804 133.224 25.1246C132.396 26.337 131.234 27.4058 129.738 28.331C128.273 29.2562 126.57 29.99 124.628 30.5324C122.686 31.0429 120.601 31.3141 118.373 31.346C116.653 31.3779 114.934 31.33 113.215 31.2024C111.496 31.1067 109.825 31.0429 108.201 31.011C107.342 31.011 106.753 31.2183 106.434 31.6331C106.402 31.665 106.371 31.681 106.339 31.681ZM118.802 30.4845C121.477 30.4526 123.832 30.0538 125.87 29.2881C127.907 28.4905 129.499 27.4377 130.645 26.1296C131.823 24.7896 132.412 23.2742 132.412 21.5832C132.412 20.3071 132.094 19.0469 131.457 17.8026C130.852 16.5264 130.04 15.346 129.022 14.2612C128.003 13.1446 126.889 12.1874 125.679 11.3898C124.469 10.5922 123.275 10.0339 122.097 9.71485C120.728 12.9691 119.551 15.7129 118.564 17.9462C117.609 20.1795 116.813 22.014 116.176 23.4496C115.571 24.8853 115.078 26.0339 114.696 26.8953C114.314 27.7248 114.011 28.3629 113.788 28.8096C113.565 29.2562 113.374 29.6072 113.215 29.8624C113.47 29.8943 113.9 29.9741 114.505 30.1017C115.141 30.1974 115.842 30.2931 116.606 30.3888C117.37 30.4526 118.102 30.4845 118.802 30.4845ZM136.588 30.5803C137.13 31.1545 137.782 31.4417 138.546 31.4417C139.692 31.4417 140.838 30.995 141.984 30.1017C142.94 29.3679 143.783 28.4267 144.515 27.2782C145.279 26.0977 145.868 24.8694 146.282 23.5932C146.728 22.317 146.951 21.1685 146.951 20.1476C146.951 18.7119 146.537 17.7707 145.709 17.324C145.327 17.1007 144.881 16.989 144.372 16.989C143.926 16.989 143.497 17.0688 143.083 17.2283C142.669 17.3878 142.366 17.6271 142.175 17.9462C142.048 18.1376 141.984 18.2971 141.984 18.4247C141.984 18.5842 142.048 18.664 142.175 18.664C142.207 18.664 142.319 18.6002 142.51 18.4726C142.796 18.2492 143.21 18.1376 143.751 18.1376C144.102 18.1376 144.356 18.2014 144.515 18.329C144.834 18.5523 145.057 18.8873 145.184 19.334C145.311 19.7807 145.375 20.2752 145.375 20.8175C145.375 21.7109 145.216 22.7159 144.897 23.8325C144.579 24.9172 144.149 25.9382 143.608 26.8953C143.067 27.8524 142.43 28.6022 141.698 29.1446C140.966 29.6869 140.265 29.9581 139.597 29.9581C138.387 29.9581 137.766 29.0329 137.734 27.1824C137.734 26.321 137.878 25.4277 138.164 24.5025C138.483 23.5773 138.928 22.7318 139.501 21.9661C140.106 21.1685 140.807 20.5783 141.602 20.1954C141.857 20.0678 142.128 20.004 142.414 20.004C142.828 20.004 143.162 20.1635 143.417 20.4825C143.704 20.7697 143.815 21.1844 143.751 21.7268C143.751 21.8544 143.815 21.9023 143.942 21.8704C144.102 21.8385 144.197 21.7587 144.229 21.6311C144.261 21.5035 144.277 21.3918 144.277 21.2961C144.308 21.2004 144.324 21.0887 144.324 20.9611C144.324 20.4187 144.149 20.0199 143.799 19.7647C143.449 19.5095 143.035 19.3819 142.557 19.3819C142.335 19.3819 142.112 19.4138 141.889 19.4776C141.666 19.5414 141.427 19.6211 141.173 19.7168C140.186 20.1635 139.278 20.8335 138.451 21.7268C137.655 22.5882 137.018 23.5613 136.541 24.6461C136.063 25.7308 135.824 26.8155 135.824 27.9003C135.824 29.1127 136.079 30.006 136.588 30.5803ZM148.886 30.7238C149.404 31.2732 150.257 31.5598 151.445 31.5836L151.484 31.5895L151.733 31.6253C153.142 31.8286 156.093 32.2544 159.461 32.2544C163.041 32.2544 164.613 32.9053 165.056 33.2193C166.128 33.9783 166.3 34.7712 165.571 35.598C164.843 36.4249 163.73 37.0916 162.233 37.5983L161.512 37.8426C161.351 37.8969 161.146 37.9471 160.895 37.9933C158.338 38.5882 155.405 39.0009 152.096 39.2314C148.804 39.4175 145.409 39.5031 141.911 39.488C138.467 39.4548 135.193 39.4025 132.09 39.3312C129.674 39.2983 126.733 39.23 123.269 39.1263C119.713 39.0146 116.113 38.8989 112.468 38.7791C108.732 38.6512 105.347 38.5204 102.314 38.3867C99.228 38.2711 96.9265 38.1799 95.4099 38.113C95.1387 38.0888 95.0051 38.134 95.009 38.2487C95.0665 38.3453 95.243 38.4983 95.5387 38.7077L95.9267 38.9825C96.3333 39.2704 96.8919 39.5261 97.6027 39.7497C98.3135 39.9733 98.975 40.0781 99.5875 40.0642C104.326 40.0072 109.661 39.9806 115.592 39.9844C121.432 39.98 127.032 40.0571 132.391 40.2157C131.351 40.3743 130.061 40.5792 128.519 40.8303C126.924 41.0995 125.313 41.4129 123.685 41.7707C122.003 42.1465 120.521 42.5515 119.238 42.9858C117.741 43.4925 116.697 44.0395 116.104 44.6269C115.421 45.2063 115.542 45.8231 116.466 46.4774C117.131 46.9485 118.261 47.3009 119.855 47.5348C121.396 47.7868 123.176 47.9 125.194 47.8745L128.763 47.8846C130.296 47.9072 131.848 47.9428 133.418 47.9916C133.689 48.0158 133.886 47.9877 134.01 47.9072C134.096 47.8006 134.102 47.7211 134.028 47.6688C133.991 47.6426 133.883 47.6215 133.702 47.6053L126.39 47.2953C123.448 47.1697 121.588 46.832 120.812 46.2825C119.704 45.4973 121.127 44.4352 125.082 43.0962C126.312 42.68 127.578 42.29 128.881 41.9261C130.094 41.5542 131.085 41.2768 131.854 41.0939C132.837 40.8386 133.866 40.6447 134.943 40.5122C136.02 40.3797 136.766 40.3206 137.182 40.3348C139.726 40.4019 142.251 40.456 144.758 40.497C147.228 40.5118 149.608 40.5185 151.897 40.5172C154.203 40.4716 156.03 40.3946 157.378 40.2864C158.78 40.16 160.404 39.9391 162.249 39.6237C162.895 39.5213 163.477 39.4017 163.995 39.265C164.566 39.1103 165.066 38.9605 165.493 38.8157C167.631 38.0919 168.791 37.235 168.973 36.245C169.156 35.255 168.637 34.3281 167.417 33.4645C166.678 32.9411 165.707 32.477 164.503 32.0721C163.738 31.7829 159.377 31.5257 155.952 31.3237L155.952 31.3237C155.201 31.2794 154.495 31.2377 153.882 31.199C154.168 31.0939 154.445 30.9674 154.712 30.8195C155.635 30.3091 156.479 29.671 157.243 28.9053C158.039 28.1077 158.755 27.3101 159.392 26.5125C159.838 25.9701 160.268 25.4118 160.681 24.8375C161.095 24.2632 161.509 23.7208 161.923 23.2104C162.019 23.0827 162.034 22.9551 161.971 22.8275L161.875 22.7318C161.684 23.0189 161.366 23.4337 160.92 23.9761C160.506 24.4865 160.108 24.9651 159.726 25.4118C159.344 25.8584 159.121 26.1137 159.058 26.1775C158.517 26.8155 157.896 27.5015 157.195 28.2353C156.495 28.9372 155.731 29.5274 154.903 30.006C154.107 30.4845 153.232 30.7238 152.277 30.7238C151.385 30.7238 150.765 30.5324 150.414 30.1495C150.096 29.7348 149.937 29.2403 149.937 28.666C149.937 28.0279 150.08 27.3739 150.367 26.7039C150.653 26.002 150.94 25.4277 151.226 24.9811C151.545 24.7577 152.134 24.5184 152.993 24.2632C153.853 23.9761 154.792 23.7368 155.811 23.5454C156.861 23.3539 157.768 23.2582 158.533 23.2582C159.106 23.2582 159.519 23.322 159.774 23.4496C159.838 23.4816 159.901 23.4816 159.965 23.4496C160.061 23.4177 160.077 23.3699 160.013 23.3061C159.822 23.0508 159.408 22.9073 158.771 22.8754C158.135 22.8435 157.546 22.8435 157.004 22.8754C156.782 22.9073 156.511 22.9551 156.193 23.0189L155.715 23.0668L155.667 22.8275C156.368 22.668 156.973 22.2692 157.482 21.6311C157.991 20.9611 158.246 20.2592 158.246 19.5254C158.246 18.5683 157.784 18.0897 156.861 18.0897C156.638 18.0897 156.463 18.1057 156.336 18.1376C156.209 17.7866 155.922 17.6112 155.476 17.6112C154.935 17.6112 154.378 17.8664 153.805 18.3769C153.232 18.8873 152.675 19.5095 152.134 20.2433C151.624 20.9771 151.147 21.7109 150.701 22.4447C150.287 23.1466 149.937 23.7049 149.65 24.1196C148.982 24.343 148.648 24.5982 148.648 24.8853C148.648 25.0768 148.759 25.2363 148.982 25.3639C148.727 25.9063 148.52 26.4487 148.361 26.991C148.202 27.5334 148.122 28.0598 148.122 28.5703C148.122 29.4317 148.377 30.1495 148.886 30.7238ZM151.704 24.0239C152.309 23.8006 152.786 23.6411 153.136 23.5454C153.487 23.4496 153.805 23.338 154.091 23.2104C154.378 23.0508 154.649 22.8754 154.903 22.6839C155.19 22.4606 155.492 22.1575 155.811 21.7747C156.097 21.4237 156.336 21.0409 156.527 20.6261C156.718 20.1795 156.813 19.7807 156.813 19.4297C156.813 19.1107 156.718 18.8554 156.527 18.664C156.336 18.4726 156.002 18.6002 155.524 19.0469C155.047 19.4616 154.537 19.988 153.996 20.6261C153.487 21.2642 153.009 21.9023 152.563 22.5404C152.149 23.1785 151.863 23.673 151.704 24.0239Z" fill="#C48F56"/>
</svg>
